<svg t="1653891300633" class="icon" viewBox="0 0 1024 1024" version="1.1" xmlns="http://www.w3.org/2000/svg" p-id="1553" width="200" height="200"><path d="M512 0C230.4 0 0 230.4 0 512s230.4 512 512 512 512-230.4 512-512S793.6 0 512 0z" fill="#FFFFFF" p-id="1554"></path><path d="M781.994667 739.712c-8.149333 12.928-18.218667 21.930667-23.552 27.477333l-3.2 3.157334-6.314667 6.4c-34.816 34.944-158.293333 92.16-379.989333-124.032-212.181333-206.677333-155.178667-333.866667-126.677334-372.053334 17.066667-22.101333 37.717333-41.472 47.530667-50.858666 22.698667-21.674667 56.96-22.229333 79.146667 0L441.770667 302.933333a59.733333 59.733333 0 0 1 0 82.688l-34.858667 34.986667-15.786667 19.072c-22.186667 22.229333-15.872 34.986667 6.314667 63.573333l107.648 108.117334c50.688 41.344 57.002667 47.701333 79.189333 25.429333l44.330667-44.501333c22.186667-22.272 60.16-28.629333 82.346667-6.4l72.789333 73.173333c19.626667 26.154667 14.762667 54.4-1.749333 80.64z m-214.016-365.824a17.536 17.536 0 0 1-12.501334-20.778667c1.962667-10.069333 10.410667-14.848 20.266667-12.8 62.378667 14.08 110.250667 66.517333 121.173333 132.821334 1.408 8.533333-3.925333 18.474667-13.866666 19.797333a16.768 16.768 0 0 1-19.370667-14.208c-8.192-51.029333-46.464-92.970667-95.701333-104.874667z m5.461333-116.181333a19.84 19.84 0 0 1-14.293333-19.2c0.298667-8.533333 10.453333-14.933333 18.773333-14.634667 125.866667 19.84 221.994667 125.226667 232.533333 254.976 1.408 8.533333-5.546667 16.810667-15.530666 18.133333-8.405333 1.408-16.469333-5.674667-17.792-15.914666-7.765333-114.304-92.714667-207.445333-203.690667-223.36z" fill="currentColor" p-id="1555"></path></svg>