<svg xmlns="http://www.w3.org/2000/svg" viewBox="0 0 32 32">
<g fill-rule="evenodd" fill="none">
<path d="M0 0h32v32H0z"/>
<path fill-rule="nonzero" fill="currentColor" 
fill-opacity=".65"
 d="m17.714 16 5.943-5.943c.457-.457.457-1.257 0-1.714-.457-.457-1.257-.457-1.714 0L16 14.286l-5.943-5.943c-.457-.457-1.257-.457-1.714 0-.457.457-.457 1.257 0 1.714L14.286 16l-5.943 5.943c-.457.457-.457 1.257 0 1.714.457.457 1.257.457 1.714 0L16 17.714l5.943 5.943c.457.457 1.257.457 1.714 0 .457-.457.457-1.257 0-1.714L17.714 16Z"
 data-follow-fill="currentColor"/>
 </g></svg>