<svg t="1653892151943" class="icon" viewBox="0 0 1024 1024" version="1.1" xmlns="http://www.w3.org/2000/svg" p-id="1702" width="200" height="200"><path d="M512 0C230.4 0 0 230.4 0 512s230.4 512 512 512 512-230.4 512-512S793.6 0 512 0z" fill="#FFFFFF" p-id="1703"></path><path d="M575.274667 288.128l220.842666 374.229333c33.706667 59.904 7.466667 104.789333-63.616 104.789334H290.901333c-67.413333 0-97.365333-48.64-63.658666-104.789334L448 288.128c37.418667-59.904 93.568-59.904 127.232 0z m-63.573334 344.32c-7.509333 0-18.773333 3.712-22.485333 11.221333-7.466667 7.466667-11.221333 14.933333-11.221333 22.442667 0 18.688 14.933333 33.706667 33.706666 33.706667 18.688 0 33.664-15.018667 33.664-33.706667 0-18.730667-11.221333-29.952-29.952-33.706667h-3.754666z m0-284.458667c-18.773333 0-33.706667 14.933333-33.706666 33.706667l14.933333 217.045333h33.706667l14.976-217.088c0-18.688-11.221333-29.909333-29.952-33.664z" fill="#666666" p-id="1704"></path></svg>