<svg xmlns="http://www.w3.org/2000/svg" viewBox="0 0 16 16"><g fill-rule="nonzero" fill="none"><path fill="none" d="M0 0h16v16H0z"/><path fill="#4880FF" d="m8.47 1.151.05.003c.562.056.991.516.991 1.075 0 .457-.287.854-.733 1.017l-.126.038-.175.023h-4.93a.82.82 0 0 0-.245.044l-.147.054h-.012l-.006.033-.004 9.119c.02.163.136.303.282.36l.075.02.06.01h9.063c.03 0 .102-.081.135-.192l.014-.07.005-.07V7.873c0-.597.493-1.076 1.092-1.076.288 0 .562.11.767.31.133.13.23.288.283.482l.033.152.01.132v4.744a2.77 2.77 0 0 1-.412 1.44l-.122.183-.072.08a2.712 2.712 0 0 1-1.29.632l-.212.032-.229.016H3.542a2.629 2.629 0 0 1-1.772-.728c-.376-.35-.628-.8-.727-1.31l-.03-.193L1 12.564V3.385a2.107 2.107 0 0 1 .89-1.705 2.92 2.92 0 0 1 1.221-.492l.226-.027.209-.01H8.47ZM13.836 1l.121.005c.261.025.509.14.711.333.368.375.438.935.171 1.404l-.073.115-.105.12-5.993 5.828a1.085 1.085 0 0 1-.53.308l-.134.028-.141.01h-.037c-.303 0-.596-.114-.832-.332a1.141 1.141 0 0 1-.175-1.413l.077-.115.1-.111 6.016-5.858c.194-.18.435-.29.696-.315L13.836 1Z" data-follow-fill="#4880FF"/></g></svg>