<svg t="1652681684818" class="icon" viewBox="0 0 1024 1024" version="1.1"
 xmlns="http://www.w3.org/2000/svg" p-id="1077" width="200" height="200">
 <path fill="currentColor" d="M485.205333 67.982222c14.791111-14.791111 38.798222-14.791111 53.589334 0l417.223111 417.223111a37.944889 37.944889 0 0 1-26.851556 64.739556H881.777778a9.500444 9.500444 0 0 0-9.500445 9.443555v369.777778a37.944889 37.944889 0 0 1-37.888 37.944889h-218.112a9.500444 9.500444 0 0 1-9.443555-9.500444v-180.110223a94.833778 94.833778 0 1 0-189.667556 0v180.110223a9.500444 9.500444 0 0 1-9.443555 9.500444H189.610667a37.944889 37.944889 0 0 1-37.888-37.944889v-369.777778a9.500444 9.500444 0 0 0-9.500445-9.443555h-47.388444a37.944889 37.944889 0 0 1-26.851556-64.739556zM682.666667 398.222222a34.759111 34.759111 0 0 0-34.759111 34.759111v44.259556h-44.259556A34.816 34.816 0 0 0 568.888889 512c0 19.569778 15.246222 34.759111 34.759111 34.759111h44.259556v44.259556a34.759111 34.759111 0 1 0 69.518222 0v-43.52h44.259555a34.759111 34.759111 0 1 0 0-69.575111h-44.259555v-44.942223A34.759111 34.759111 0 0 0 682.666667 398.222222z" p-id="1078"></path></svg>