<svg t="1652426345719" class="icon" viewBox="0 0 1024 1024" version="1.1" xmlns="http://www.w3.org/2000/svg" p-id="1231" width="200" height="200"><path d="M910.222222 56.888889H113.777778c-31.402667 0-56.888889 29.127111-56.888889 65.024v130.048c0 35.84 25.486222 64.967111 56.888889 64.967111h796.444444c31.402667 0 56.888889-29.070222 56.888889-64.967111V121.912889C967.111111 86.016 941.624889 56.888889 910.222222 56.888889zM180.167111 186.936889c0-29.923556 21.219556-54.215111 47.388445-54.215111 26.168889 0 47.388444 24.291556 47.388444 54.215111s-21.219556 54.158222-47.388444 54.158222c-26.168889 0-47.388444-24.234667-47.388445-54.158222z m199.111111 54.158222c-26.168889 0-47.445333-24.234667-47.445333-54.158222s21.219556-54.215111 47.445333-54.215111c26.168889 0 47.388444 24.291556 47.388445 54.215111 0 29.866667-21.219556 54.101333-47.388445 54.158222zM910.222222 381.952H113.777778c-31.402667 0-56.888889 29.127111-56.888889 65.024v130.048c0 35.896889 25.486222 65.024 56.888889 65.024h796.444444c31.402667 0 56.888889-29.127111 56.888889-65.024V446.976c0-35.896889-25.486222-65.024-56.888889-65.024zM180.167111 512c0-29.923556 21.219556-54.158222 47.388445-54.158222 26.168889 0 47.388444 24.234667 47.388444 54.158222s-21.219556 54.158222-47.388444 54.158222c-26.168889 0-47.388444-24.234667-47.388445-54.158222z m199.111111 54.158222c-26.168889 0-47.445333-24.234667-47.445333-54.158222s21.219556-54.158222 47.445333-54.158222c26.168889 0 47.388444 24.234667 47.388445 54.158222s-21.219556 54.158222-47.388445 54.158222zM910.222222 707.072H113.777778c-31.402667 0-56.888889 29.070222-56.888889 64.967111v130.048C56.888889 937.984 82.375111 967.111111 113.777778 967.111111h796.444444c31.402667 0 56.888889-29.127111 56.888889-65.024v-130.048c0-35.84-25.486222-64.967111-56.888889-64.967111zM180.167111 837.063111c0-29.923556 21.219556-54.158222 47.388445-54.158222 26.168889 0 47.388444 24.234667 47.388444 54.158222s-21.219556 54.215111-47.388444 54.215111c-26.168889 0-47.388444-24.291556-47.388445-54.215111z m199.111111 54.215111c-26.168889 0-47.445333-24.291556-47.445333-54.215111s21.219556-54.158222 47.445333-54.158222c26.168889 0 47.388444 24.234667 47.388445 54.158222s-21.219556 54.158222-47.388445 54.215111z" fill="currentColor" p-id="1232"></path></svg>