<svg t="1652426399585" class="icon" viewBox="0 0 1024 1024" version="1.1" xmlns="http://www.w3.org/2000/svg" p-id="1660" width="200" height="200"><path d="M363.576889 965.688889a484.807111 484.807111 0 0 1-176.014222-100.352 29.582222 29.582222 0 0 1-9.955556-23.153778l5.859556-143.246222-128.682667-66.56a29.980444 29.980444 0 0 1-15.644444-20.252445 471.608889 471.608889 0 0 1 0-200.248888 30.094222 30.094222 0 0 1 15.644444-20.252445l128.682667-66.56-5.859556-143.246222a29.468444 29.468444 0 0 1 9.955556-23.153778 484.807111 484.807111 0 0 1 176.014222-100.352 30.606222 30.606222 0 0 1 25.372444 3.185778L512 138.126222l123.050667-76.629333a30.549333 30.549333 0 0 1 25.429333-3.185778 484.750222 484.750222 0 0 1 175.957333 100.352 29.582222 29.582222 0 0 1 9.955556 23.153778l-5.859556 143.246222 128.682667 66.56c8.021333 4.209778 13.767111 11.605333 15.644444 20.252445a471.04 471.04 0 0 1 0 200.248888 29.980444 29.980444 0 0 1-15.644444 20.252445l-128.682667 66.56 5.859556 143.246222a29.582222 29.582222 0 0 1-9.955556 23.153778 484.807111 484.807111 0 0 1-176.014222 100.352 30.606222 30.606222 0 0 1-25.372444-3.185778L512 885.873778 388.949333 962.56a30.549333 30.549333 0 0 1-25.372444 3.185778zM512 690.631111c100.124444 0 181.361778-79.985778 181.361778-178.688S612.124444 333.312 512 333.312C411.875556 333.312 330.695111 413.297778 330.695111 512S411.818667 690.688 512 690.688z m0-59.562667c66.787556 0 120.888889-53.304889 120.888889-119.125333 0-65.763556-54.044444-119.125333-120.888889-119.125333-66.787556 0-120.888889 53.304889-120.888889 119.125333 0 65.763556 54.044444 119.125333 120.888889 119.125333z" fill="currentColor" p-id="1661"></path></svg>