<svg t="1652426335557" class="icon" viewBox="0 0 1024 1024" version="1.1" xmlns="http://www.w3.org/2000/svg" p-id="1087" width="200" height="200"><path d="M845.767111 206.051556H739.555556V178.631111A121.912889 121.912889 0 0 0 618.211556 56.888889H405.788444A121.912889 121.912889 0 0 0 284.444444 178.631111v27.420445H178.232889A121.912889 121.912889 0 0 0 56.888889 327.793778v30.492444h910.222222v-30.435555a121.912889 121.912889 0 0 0-121.344-121.742223z m-500.622222-27.420445a60.984889 60.984889 0 0 1 60.643555-60.871111h212.423112c33.450667 0.113778 60.586667 27.306667 60.643555 60.871111v27.420445H345.144889V178.631111zM65.991111 388.721778H56.888889v517.518222c0.113778 33.564444 27.192889 60.757333 60.700444 60.871111h788.821334A60.984889 60.984889 0 0 0 967.111111 906.24V388.721778H65.991111z m552.049778 319.658666H557.511111v60.984889a45.511111 45.511111 0 1 1-91.022222 0v-60.984889H405.959111a45.681778 45.681778 0 0 1 0-91.363555H466.488889v-58.026667a45.511111 45.511111 0 1 1 91.022222 0v58.026667h60.529778a45.681778 45.681778 0 1 1 0 91.363555z" fill="currentColor" p-id="1088"></path></svg>