<svg t="1652687073677" class="icon" viewBox="0 0 1024 1024" version="1.1" xmlns="http://www.w3.org/2000/svg" p-id="987" width="200" height="200">
<defs><style>
.path-1{
  fill: currentColor;
}
.path-2{ 
  fill: var(--menu-svg-fill-2);
}
</style></defs>
<path d="M890.936889 272.497778h-76.117333V129.024a71.850667 71.850667 0 0 0-22.186667-51.2A78.506667 78.506667 0 0 0 738.702222 56.888889H133.12C90.965333 56.888889 56.888889 89.201778 56.888889 129.024v765.952C56.888889 934.4 90.510222 967.111111 133.063111 967.111111H890.88c41.642667 0 76.174222-31.857778 76.174222-72.135111V344.632889c0-40.277333-33.621333-72.135111-76.174222-72.135111z m0 586.410666v3.356445c-1.706667 18.432-18.545778 32.711111-38.058667 32.711111h-3.527111a37.205333 37.205333 0 0 1-34.531555-36.067556v-514.275555h50.460444c7.111111 0 13.312 2.503111 17.692444 6.712889a24.234667 24.234667 0 0 1 7.111112 16.782222v490.780444h0.853333z" fill="path-1" p-id="988"></path>
<path d="M610.304 560.241778H231.310222c-20.366222 0-37.091556 15.132444-38.115555 34.417778 0 18.432 15.075556 35.214222 34.588444 36.864h382.520889c20.764444 0 37.603556-15.928889 37.603556-35.612445s-16.839111-35.669333-37.603556-35.669333z m0 195.470222H231.310222c-20.366222 0-37.091556 15.132444-38.115555 34.360889-0.853333 19.342222 14.222222 35.271111 34.588444 37.774222h382.520889c21.219556 0 38.058667-15.928889 38.058667-36.067555s-16.839111-36.067556-38.115556-36.067556zM429.681778 274.147556h-54.044445v-51.996445c0-22.186667-19.000889-40.277333-42.496-40.277333s-42.496 18.033778-42.496 40.277333v51.2h-54.044444c-22.983111 0-42.496 17.635556-42.496 40.220445 0 22.698667 18.602667 40.277333 42.552889 40.277333h53.987555v51.2c0 22.186667 19.000889 40.277333 42.496 40.277333s42.496-18.033778 42.496-40.277333v-50.346667h54.044445c23.438222 0 42.496-18.033778 42.496-40.277333 0-22.186667-19.057778-40.277333-42.496-40.277333z" class="path-2" p-id="989"></path></svg>

