<svg t="1652424605030" class="icon" viewBox="0 0 1024 1024" version="1.1" xmlns="http://www.w3.org/2000/svg" p-id="845" width="200" height="200">
<path d="M434.915556 56.888889c126.179556 0.625778 228.067556 102.229333 227.84 227.271111a227.84 227.84 0 0 1-75.832889 169.870222c-85.617778 18.033778-138.581333 98.417778-138.581334 202.638222 0 77.141333 57.116444 160.824889 169.870223 252.871112H133.12C91.022222 909.539556 56.888889 882.176 56.888889 848.327111a390.371556 390.371556 0 0 1 244.622222-365.112889v-13.425778a227.157333 227.157333 0 0 1-83.911111-254.293333A230.115556 230.115556 0 0 1 434.915556 56.888889z" fill="currentColor" p-id="846"></path>
<path d="M819.712 499.484444c-31.288889 0-52.337778 10.808889-81.464889 35.441778-29.297778-24.632889-49.664-35.441778-81.635555-35.441778-86.300444 0-141.767111 68.721778-141.767112 161.450667 0 72.021333 66.275556 151.324444 194.389334 240.412445a51.2 51.2 0 0 0 57.628444 0c129.024-89.088 194.56-168.391111 194.56-239.729778 0-93.411556-55.466667-162.133333-141.710222-162.133334z m-12.743111 222.321778h-34.474667v34.133334c0 18.887111-15.36 34.133333-34.417778 34.133333a34.304 34.304 0 0 1-34.474666-34.133333v-34.133334h-34.417778a34.304 34.304 0 0 1-34.417778-34.133333c0-18.830222 15.36-34.133333 34.417778-34.133333h34.417778v-34.133334c0-18.830222 15.416889-34.133333 34.474666-34.133333 19.000889 0 34.417778 15.303111 34.417778 34.133333v34.133334h34.474667c19.000889 0 34.417778 15.303111 34.417778 34.133333 0 18.887111-15.416889 34.133333-34.417778 34.133333z" fill="currentColor" p-id="847">
</path></svg>