<svg class="uil-default" preserveAspectRatio="xMidYMid" viewBox="0 0 100 100" xmlns="http://www.w3.org/2000/svg"><path class="bk" fill="none" d="M0 0h100v100H0z"/><rect transform="translate(0 -30)" fill="#ccc" ry="3" rx="3" height="8" width="8" y="46" x="46" data-follow-fill="#ccc"/><rect transform="rotate(21.176 130.243 65)" fill="#ccc" ry="3" rx="3" height="8" width="8" y="46" x="46" data-follow-fill="#ccc"/><rect transform="rotate(42.353 88.72 65)" fill="#ccc" ry="3" rx="3" height="8" width="8" y="46" x="46" data-follow-fill="#ccc"/><rect transform="rotate(63.529 74.226 65)" fill="#ccc" ry="3" rx="3" height="8" width="8" y="46" x="46" data-follow-fill="#ccc"/><rect transform="rotate(84.706 66.454 65)" fill="#ccc" ry="3" rx="3" height="8" width="8" y="46" x="46" data-follow-fill="#ccc"/><rect transform="rotate(105.882 61.327 65)" fill="#ccc" ry="3" rx="3" height="8" width="8" y="46" x="46" data-follow-fill="#ccc"/><rect transform="rotate(127.059 57.47 65)" fill="#ccc" ry="3" rx="3" height="8" width="8" y="46" x="46" data-follow-fill="#ccc"/><rect transform="rotate(148.235 54.268 65)" fill="#ccc" ry="3" rx="3" height="8" width="8" y="46" x="46" data-follow-fill="#ccc"/><rect transform="rotate(169.412 51.39 65)" fill="#ccc" ry="3" rx="3" height="8" width="8" y="46" x="46" data-follow-fill="#ccc"/><rect transform="rotate(-169.412 48.61 65)" fill="#ccc" ry="3" rx="3" height="8" width="8" y="46" x="46" data-follow-fill="#ccc"/><rect transform="rotate(-148.235 45.732 65)" fill="#ccc" ry="3" rx="3" height="8" width="8" y="46" x="46" data-follow-fill="#ccc"/><rect transform="rotate(-127.059 42.53 65)" fill="#ccc" ry="3" rx="3" height="8" width="8" y="46" x="46" data-follow-fill="#ccc"/><rect transform="rotate(-105.882 38.673 65)" fill="#ccc" ry="3" rx="3" height="8" width="8" y="46" x="46" data-follow-fill="#ccc"/><rect transform="rotate(-84.706 33.546 65)" fill="#ccc" ry="3" rx="3" height="8" width="8" y="46" x="46" data-follow-fill="#ccc"/><rect transform="rotate(-63.529 25.774 65)" fill="#ccc" ry="3" rx="3" height="8" width="8" y="46" x="46" data-follow-fill="#ccc"/><rect transform="rotate(-42.353 11.28 65)" fill="#ccc" ry="3" rx="3" height="8" width="8" y="46" x="46" data-follow-fill="#ccc"/><rect transform="rotate(-21.176 -30.243 65)" fill="#ccc" ry="3" rx="3" height="8" width="8" y="46" x="46" data-follow-fill="#ccc"/></svg>