<svg xmlns="http://www.w3.org/2000/svg" viewBox="0 0 24 24"><g fill-rule="evenodd" fill="none"><path d="M12 0C5.4 0 0 5.4 0 12s5.4 12 12 12 12-5.4 12-12S18.6 0 12 0Z" fill-rule="nonzero" fill="#FFF"/><path d="M4 4h16v16H4z"/><path fill-rule="nonzero" fill="#4879FB" d="M11.829 4.5c2.263 0 4.097 1.775 4.097 3.965s-1.834 3.965-4.097 3.965c-2.263 0-4.097-1.775-4.097-3.965S9.567 4.5 11.829 4.5Zm0 0c2.263 0 4.097 1.775 4.097 3.965s-1.834 3.965-4.097 3.965c-2.263 0-4.097-1.775-4.097-3.965S9.567 4.5 11.829 4.5Zm-1.537 8.391h3.416c2.923 0 5.292 2.293 5.292 5.122v.33c0 1.115-2.37 1.157-5.292 1.157h-3.416C7.37 19.5 5 19.498 5 18.343v-.33c0-2.83 2.37-5.122 5.292-5.122Z"/></g></svg>